<svg xmlns="http://www.w3.org/2000/svg" width="1524.436" height="263.992" viewBox="0 0 1524.436 263.992">
  <g id="Group_171" data-name="Group 171" transform="translate(-1359.002 -144)">
    <path id="Path_221" data-name="Path 221" d="M174.231,91.727l.32,24.6q-1.278,23.324-5.751,39.3T151.226,184.7Q129.5,206.429,87.964,206.429q-48.884,0-67.1-12.94T2.656,146.682V-21.059h88.5q38.341,0,60.067,21.726a71.564,71.564,0,0,1,20.768,42.814Q174.231,61.374,174.231,91.727Zm-54,61.026q6.071-7.349,7.828-20.289t1.757-40.418q0-27.478-1.757-39.778t-7.828-19.65Q108.732,18.56,87.006,18.56H47.067V144.445q0,12.78,8.627,17.573t30.832,4.793Q108.732,166.811,120.234,152.752ZM300.436,24.63l-11.5,40.9A29.05,29.05,0,0,0,278.07,63.61q-15.975,0-39.3,13.739v129.08H197.235V23.991h30.992l9.585,15.975L281.9,21.755q3.2-.32,8.627-.319A16.655,16.655,0,0,1,300.436,24.63ZM413.221,124V107.382q0-23.643-6.869-36.1t-28.6-12.461q-35.146,0-35.146,47.287v16.614q0,50.8,35.146,50.8,22.685,0,29.714-16.934Q413.221,143.167,413.221,124Zm41.536-9.585q0,59.109-22.365,79.237Q413.541,210.9,377.756,210.9q-45.689,0-61.665-26.839-15.017-24.6-15.017-69.652,0-42.175,15.017-66.138,16.614-26.838,60.546-26.838t61.026,23.484Q454.757,68.4,454.757,114.412ZM617.7,110.258q0,71.25-36.743,91.059-15.017,7.988-36.743,7.988L513.546,189.5v51.281H472.01V25.269H553.8q37.063,0,50.482,20.928T617.7,110.258Zm-41.536,6.39q0-54-34.507-54H513.546v84.669l28.117,18.212q18.531,0,26.519-11.662T576.169,116.648Zm231.322,22.685q0,32.27-23.643,50.642t-60.387,18.372q-29.075,0-56.233-15.975a64.275,64.275,0,0,1-22.046-23.484q-8.627-15.177-8.627-34.666l40.258-1.917q0,17.253,14.7,26.839a58.4,58.4,0,0,0,32.59,9.585q39.938,0,39.938-28.117,0-23-27.158-27.158l-37.063-3.834q-27.8-4.154-44.092-19.809t-16.295-45.05q0-29.395,23.324-48.565T721.7-22.976q35.625,0,57.351,18.052t21.726,46.488l-39.619,1.917q-5.432-27.8-37.382-27.8-19.49,0-30.513,8.307t-11.023,19.65q0,11.342,7.988,17.892t19.809,8.147l36.424,3.834Q807.492,81.822,807.491,139.333Zm94.254,67.1h-25.88q-23.643,0-35.944-14.058t-12.3-33.548V62.971H810.047V31.34H827.62V-4.445h41.536V31.34h29.395V62.971H869.156v93.3q0,15.017,14.378,15.017h18.212Zm154,0h-27.8l-12.78-22.046-44.411,23.963q-37.063,0-49.843-26.838a99.488,99.488,0,0,1-8.786-28.276,202.653,202.653,0,0,1-2.4-31.631q0-16.455.319-24.282t1.6-18.212a88.212,88.212,0,0,1,3.674-17.413,77.347,77.347,0,0,1,6.869-14.538,38.211,38.211,0,0,1,10.863-11.981q14.378-9.9,37.382-9.9h43.772l41.536-2.556Zm-41.536-58.15V62.652H982.581q-17.573,0-24.442,13.419t-6.869,40.1q0,26.679,6.55,37.542t24.762,10.863ZM1181.633,24.63l-11.5,40.9a29.051,29.051,0,0,0-10.863-1.917q-15.975,0-39.3,13.739v129.08h-41.536V23.991h30.992l9.585,15.975L1163.1,21.755q3.2-.32,8.627-.319A16.655,16.655,0,0,1,1181.633,24.63Z" transform="translate(1701.805 167.216)"/>
    <g id="Group_158" data-name="Group 158" transform="translate(1359.002 144)">
      <path id="Path_219" data-name="Path 219" d="M-8731.9,17837.25s-5.135,30.684-8.15,59.754c-3.025,29.141-3.756,55.037-3.756,55.037s22.248,31.926,48.148,61.828c25.936,29.893,56.93,48.555,56.93,48.555a267.193,267.193,0,0,0,53.555-44.088c25.824-27.7,48.139-55.816,48.139-55.816s-.191-9.176-.781-23.012c-.275-6.67-.682-14.7-1.309-23.961-.35-5.561-.84-12.061-1.412-18.543-2.85-31.193-8.529-59.783-8.529-59.783s-17.336,1.873-40.01,5.578c-22.645,3.656-51.234,11.08-51.234,11.08s-29.086-6.951-52-11.08C-8715.176,17838.643-8731.9,17837.25-8731.9,17837.25Z" transform="translate(8779.072 -17837.221)" fill="#000001"/>
      <path id="Path_220_-_Outline" data-name="Path 220 - Outline" d="M-8619.423,17844.141s41.042,11.242,76.905,23.012c35.857,11.75,66.556,23.949,66.556,23.949a570.822,570.822,0,0,1-57.8,84.168c-23.981,28.961-53.924,56.512-73.679,75.453a13.9,13.9,0,0,1-10.7,5.09c-7.143.2-12.291-5.109-12.2-5.09-4.4-4.566-15.993-15.355-26.141-25.895-12.422-12.875-26.321-28.98-42.895-49.559A857.25,857.25,0,0,1-8759,17891.1a524.654,524.654,0,0,1,59.62-23.949C-8664.506,17855.383-8619.423,17844.141-8619.423,17844.141Z" transform="translate(8758.997 -17827.797)"/>
    </g>
  </g>
</svg>