<svg width="12" height="10" viewBox="0 0 12 10" fill="none" xmlns="http://www.w3.org/2000/svg">
<path d="M7.58623 0.301172C7.70384 0.186824 7.89149 0.188146 8.00748 0.304139L11.9121 4.20879C11.9684 4.26505 12 4.34135 12 4.42092L12 5.34886C12 5.42842 11.9684 5.50473 11.9121 5.56099L8.00895 9.46417C7.89238 9.58074 7.70359 9.58141 7.5862 9.46567L6.81954 8.70981C6.70122 8.59315 6.70025 8.40254 6.81739 8.28469L8.85296 6.23671C9.04106 6.04746 8.90701 5.72522 8.64018 5.72522L0.3 5.72523C0.134314 5.72523 -1.78513e-07 5.59091 -1.85755e-07 5.42523L-2.32993e-07 4.34455C-2.40235e-07 4.17887 0.134314 4.04455 0.3 4.04455L8.63708 4.04455C8.90435 4.04455 9.0382 3.72141 8.84921 3.53242L6.80338 1.48658C6.68505 1.36826 6.6864 1.176 6.80638 1.05935L7.58623 0.301172Z" fill="black"/>
</svg>
